<?xml version="1.0" encoding="UTF-8" standalone="no"?>
<svg
   width="980.6615"
   height="976.99445"
   viewBox="-1380 -1316 4744.0548 4726.315"
   version="1.1"
   id="svg1062"
   sodipodi:docname="brazil.svg"
   inkscape:version="1.1.1 (3bf5ae0d25, 2021-09-20)"
   xmlns:inkscape="http://www.inkscape.org/namespaces/inkscape"
   xmlns:sodipodi="http://sodipodi.sourceforge.net/DTD/sodipodi-0.dtd"
   xmlns:xlink="http://www.w3.org/1999/xlink"
   xmlns="http://www.w3.org/2000/svg"
   xmlns:svg="http://www.w3.org/2000/svg">
  <sodipodi:namedview
     id="namedview1064"
     pagecolor="#ffffff"
     bordercolor="#666666"
     borderopacity="1.0"
     inkscape:pageshadow="2"
     inkscape:pageopacity="0.0"
     inkscape:pagecheckerboard="0"
     showgrid="false"
     inkscape:zoom="0.29553437"
     inkscape:cx="509.24702"
     inkscape:cy="438.1893"
     inkscape:window-width="1366"
     inkscape:window-height="697"
     inkscape:window-x="-8"
     inkscape:window-y="-8"
     inkscape:window-maximized="1"
     inkscape:current-layer="svg1062" />
  <defs
     id="defs988">
    <path
       id="D"
       d="m -31.5,0 h 33 a 30,30 0 0 0 30,-30 v -10 a 30,30 0 0 0 -30,-30 h -33 z m 13,-13 h 19 a 19,19 0 0 0 19,-19 v -6 a 19,19 0 0 0 -19,-19 h -19 z"
       fill-rule="evenodd" />
    <path
       id="E"
       d="M 0,0 H 63 V -13 H 12 V -31 H 52 V -43 H 12 V -57 H 60 V -70 H 0 Z"
       transform="translate(-31.5)" />
    <path
       id="e"
       d="m -26.25,0 h 52.5 v -12 h -40.5 v -16 h 33 v -12 h -33 V -51 H 25 v -12 h -51.25 z" />
    <g
       id="G">
      <clipPath
         id="gcut">
        <path
           d="m -31.5,0 v -70 h 63 V 0 Z M 0,-47 v 12 h 31.5 v -12 z"
           id="path951" />
      </clipPath>
      <use
         xlink:href="#O"
         clip-path="url(#gcut)"
         id="use954"
         x="0"
         y="0"
         width="100%"
         height="100%" />
      <rect
         x="5"
         y="-35"
         width="26.5"
         height="10"
         id="rect956" />
      <rect
         x="21.5"
         y="-35"
         width="10"
         height="35"
         id="rect958" />
    </g>
    <path
       id="M"
       d="m -31.5,0 h 12 v -48 l 14,48 h 11 l 14,-48 V 0 h 12 V -70 H 14 L 0,-22 -14,-70 h -17.5 z" />
    <path
       id="O"
       d="M 0,0 A 31.5,35 0 0 0 0,-70 31.5,35 0 0 0 0,0 m 0,-13 a 18.5,22 0 0 0 0,-44 18.5,22 0 0 0 0,44"
       fill-rule="evenodd" />
    <path
       id="P"
       d="m -31.5,0 h 13 v -26 h 28 a 22,22 0 0 0 0,-44 h -40 z m 13,-39 h 27 a 9,9 0 0 0 0,-18 h -27 z"
       fill-rule="evenodd" />
    <g
       id="R">
      <use
         xlink:href="#P"
         id="use964"
         x="0"
         y="0"
         width="100%"
         height="100%" />
      <path
         d="m 28,0 c 0,-10 0,-32 -15,-32 H -6 c 22,0 22,22 22,32"
         id="path966" />
    </g>
    <path
       id="S"
       d="m -15.75,-22 c 0,7 6.75,10.5 16.75,10.5 10,0 14.74,-3.25 14.75,-7.75 C 15.75,-33.5 -31,-24.5 -30.75,-49.5 -30.5,-71 -6,-70 3,-70 c 9,0 26,4 25.75,21.25 H 13.5 c 0,-7.5 -7,-10.25 -15,-10.25 -7.75,0 -13.25,1.25 -13.25,8.5 -0.25,11.75 46.25,4 46.25,28.75 C 31.5,-3.5 13.5,0 0,0 -11.5,0 -31.55,-4.5 -31.5,-22 Z" />
    <g
       id="star"
       fill="#ffffff">
      <g
         id="c">
        <path
           id="t"
           d="M 0,-1 V 0 H 0.5"
           transform="rotate(18,0,-1)" />
        <use
           xlink:href="#t"
           transform="scale(-1,1)"
           id="use971"
           x="0"
           y="0"
           width="100%"
           height="100%" />
      </g>
      <use
         xlink:href="#c"
         transform="rotate(72)"
         id="use974"
         x="0"
         y="0"
         width="100%"
         height="100%" />
      <use
         xlink:href="#c"
         transform="rotate(-72)"
         id="use976"
         x="0"
         y="0"
         width="100%"
         height="100%" />
      <use
         xlink:href="#c"
         transform="rotate(144)"
         id="use978"
         x="0"
         y="0"
         width="100%"
         height="100%" />
      <use
         xlink:href="#c"
         transform="rotate(-144)"
         id="use980"
         x="0"
         y="0"
         width="100%"
         height="100%" />
    </g>
    <use
       id="star1"
       xlink:href="#star"
       transform="scale(31.5)"
       x="0"
       y="0"
       width="100%"
       height="100%" />
    <use
       id="star2"
       xlink:href="#star"
       transform="scale(26.25)"
       x="0"
       y="0"
       width="100%"
       height="100%" />
    <use
       id="star3"
       xlink:href="#star"
       transform="scale(21)"
       x="0"
       y="0"
       width="100%"
       height="100%" />
    <use
       id="star4"
       xlink:href="#star"
       transform="scale(15)"
       x="0"
       y="0"
       width="100%"
       height="100%" />
    <use
       id="star5"
       xlink:href="#star"
       transform="scale(10.5)"
       x="0"
       y="0"
       width="100%"
       height="100%" />
    <clipPath
       clipPathUnits="userSpaceOnUse"
       id="clipPath1470">
      <path
         d="m -329.40118,130.63385 c 1.39097,2.78197 4.17293,4.17296 6.25943,6.25944 1.39098,2.08648 2.78196,4.86846 4.17295,7.65043 1.39098,2.78197 4.17298,4.86845 4.17298,7.65043 0,2.08648 -3.47749,3.47747 -4.17298,5.56394 0,1.39099 0,2.78198 0.69549,4.86846 l 2.08649,2.08648 c 2.78197,0 3.47746,-2.78198 5.56393,-4.17296 h 3.47748 c 1.39098,0.69549 1.39098,3.47747 2.78198,3.47747 0.69549,0.69549 2.08646,-2.08649 3.47746,-1.39099 1.391,0 2.78198,0.69549 3.47746,2.08648 2.08647,2.78197 1.39098,6.25944 3.47749,9.04142 1.39097,2.08648 4.17295,2.78197 6.95492,3.47746 2.08649,0 4.86844,-0.69549 6.25946,-2.08648 2.08647,-2.08648 2.08647,-4.86845 3.47745,-6.25944 1.39097,-1.39099 3.47746,-0.69549 4.86844,-1.39099 1.39101,-0.69549 2.78199,-2.08648 4.86846,-2.78197 0.69548,-0.69549 2.78199,-2.78198 3.47748,-2.08648 2.08647,2.78197 1.39098,6.25944 1.39098,9.04141 0.69549,8.34593 -2.08647,17.38734 0.69549,25.03777 0.69548,2.78197 4.86846,2.08648 7.65043,1.39099 2.78196,-0.6955 4.86846,-3.47747 7.65042,-3.47747 3.47744,-0.6955 6.95494,0 9.7369,0 4.17295,0.69549 9.04141,0.69549 13.21438,0.69549 4.86846,0.69549 9.73692,1.39099 14.60536,0 2.08651,0 4.17297,-2.78197 4.86846,-4.86845 1.39098,-1.39099 0,-4.17296 1.39098,-5.56395 0.69549,-0.69549 3.47748,-0.69549 4.86846,-0.69549 1.391,0 2.08648,2.08648 2.78197,1.39098 2.782,-0.69549 4.86846,-2.78197 6.25944,-4.17296 2.08649,-2.08648 2.78198,-5.56394 4.86846,-6.95493 1.39098,-0.69549 2.78198,2.08648 3.47746,1.39099 2.08649,-1.39099 2.782,-4.17297 4.17298,-6.25945 2.08646,-2.08648 4.86846,-4.17296 6.95492,-4.86845 3.47747,-1.39099 7.65044,-2.08648 11.12788,-2.78198 2.08651,0 3.47749,-0.69549 5.56397,-0.69549 2.08647,0 4.17295,0.69549 6.25944,0.69549 1.39098,0 2.78195,-1.39098 4.17297,-1.39098 0.69549,-0.6955 2.08647,-2.08648 2.78196,-0.6955 2.08648,2.08648 2.78197,6.25945 2.78197,9.04142 0,2.78197 -2.78197,4.17296 -2.78197,6.25944 -0.69549,2.78198 0,5.56395 0.69549,7.65043 0.69551,2.08648 2.78199,2.78197 3.47748,4.86846 0.69548,2.08648 0.69548,4.17296 0,6.25943 -0.69549,1.39099 -3.47748,0.6955 -3.47748,2.08648 0,2.78198 1.39099,4.86846 2.08648,6.95494 1.391,2.78197 1.391,5.56395 3.47748,8.34592 2.08647,3.47747 4.86846,6.95494 8.34591,9.04142 2.78197,2.08648 6.25945,2.08648 9.04141,3.47747 1.391,1.39098 0.69549,4.86845 2.78199,6.25944 2.08647,1.39098 4.86844,1.39098 6.95493,0.69549 2.78197,0 4.86846,-0.69549 6.954933,-1.39099 0.69551,0 1.39099,-1.39098 2.78197,-1.39098 2.78198,0.69549 6.25944,2.78197 9.04141,4.17296 2.08649,1.39098 2.78198,4.17296 4.868461,5.56395 2.08649,0.69549 4.17298,-0.6955 5.56395,0.69549 2.78198,0.69549 4.17296,4.17296 6.95494,4.86845 2.08648,1.39099 4.86845,2.08648 6.95493,2.08648 1.39099,0.6955 3.47747,-0.69549 4.86846,0.6955 2.78197,2.08648 4.17296,6.25943 7.65042,8.34591 2.08648,1.391 5.56395,2.08649 9.04142,1.391 1.39099,-0.69551 1.39099,-4.17297 3.47747,-4.17297 2.78197,-0.69549 4.86845,1.391 7.65043,2.08648 2.08648,1.39098 4.17296,2.78198 6.25944,4.17296 2.78197,1.39099 6.95493,2.08648 8.34592,4.86846 1.39099,2.08648 -1.39099,5.56394 -0.6955,8.34592 0.6955,3.47746 3.47747,6.25944 4.86846,9.7369 0.69549,2.08648 0,5.56394 0,8.34592 0,0.69551 0.69549,1.39099 0,2.08648 -2.08648,0.69549 -4.17296,-0.69549 -5.56395,0 -0.69549,0.69549 0,2.78198 0.69549,3.47747 0.6955,1.39099 2.78198,2.08648 3.47747,4.17295 1.39099,2.78197 2.08648,6.25944 2.08648,9.73692 0.6955,2.78197 0,5.56395 0.6955,7.65044 0.6954902,2.78195 2.7819702,5.56394 4.8684502,6.25943 5.56395008,1.39098 11.8233901,0 18.0828298,0 5.56395,0.69549 11.127901,0.69549 16.691841,0.69549 1.39099,0.69549 4.86846,-1.39098 4.86846,0.69549 0.69549,2.08649 -3.47747,3.47746 -4.17296,6.25944 0,2.08648 2.08648,3.47746 2.78197,4.86846 1.39099,2.78197 1.39099,6.25944 2.78198,8.34592 1.39098,2.08647 3.47746,2.78198 5.56394,4.17296 2.08649,2.08649 3.47747,4.17298 5.56395,6.25946 2.08648,2.08647 4.17296,4.86844 5.56395,7.65042 1.39099,2.78197 1.39099,5.56395 1.39099,9.04141 0,2.78198 -0.6955,5.56395 -2.08648,8.34593 -0.6955,3.47746 -2.78198,6.95492 -4.17296,10.43241 -0.6955,4.17295 -2.08648,7.65043 -3.47747,11.1279 -0.69549,2.08646 -2.78198,4.86846 -2.08648,6.95492 0.69549,2.08647 3.47747,2.08647 4.86845,2.78198 0.6955,1.39099 1.39099,2.78197 0.6955,3.47746 -0.6955,1.391 -2.78198,0 -4.17296,1.391 -1.39099,1.39097 -2.08649,4.17295 -1.39099,6.25944 0,2.78195 2.08648,4.86846 2.78197,7.65041 0.6955,1.391 1.39099,2.78197 2.08648,4.86846 0.6955,1.39098 2.08648,2.78196 2.08648,4.86844 0.6955,2.782 0.6955,5.56395 0,9.04143 0,1.39098 -0.69549,2.78196 -1.39098,4.86845 0,1.39101 0.69549,3.47748 0.69549,4.86846 0,2.08646 -1.39099,4.17297 -1.39099,6.25943 0,2.08647 0,4.86846 2.08648,6.25944 2.08648,0.69549 4.17296,-2.08646 6.25944,-2.08646 2.08648,0 4.86846,0.69548 7.65043,0.69548 2.08648,0.69551 4.86845,0 6.95494,0.69551 2.08648,0 3.47746,1.39096 4.86846,1.39096 1.39098,0.69551 3.47746,1.39102 4.86845,1.39102 1.39099,-0.69551 1.39099,-4.86848 3.47746,-4.17297 2.08648,0 2.08648,3.47746 4.17296,4.86846 2.78198,1.39097 6.95494,0 9.73692,1.39097 2.08648,2.08649 3.477465,6.25948 4.172965,9.04142 2.08648,5.56395 2.08648,10.43241 3.47746,15.99634 0.6955,2.78199 0.6955,6.95494 3.47747,9.04143 1.39099,1.391 4.86845,1.391 7.65043,2.08649 3.47746,0 6.95493,-1.391 9.7369,-0.69549 2.78198,0.69549 6.95494,2.08648 7.65043,4.86846 1.39099,3.47744 -2.78197,6.95492 -2.78197,10.43239 0,2.78195 2.08648,4.86846 1.39099,7.65043 0,2.08647 -2.08649,4.17296 -2.08649,6.95493 -0.69549,1.39098 2.08649,2.08647 1.39099,3.47746 -0.69549,1.391 -2.78197,0.69549 -3.47747,2.08649 -0.69549,1.39098 -0.69549,3.47746 0,5.56395 0,2.08646 0,4.17295 2.08648,4.86844 2.78198,0.69549 6.95494,-2.78198 9.73691,-1.39096 3.47747,2.08645 4.86846,6.95491 6.25945,10.43241 1.39098,2.08645 2.08648,4.86842 2.08648,6.95491 -0.6955,1.39098 -2.78198,2.08649 -2.78198,3.47748 -0.69549,2.08645 0.6955,4.17295 0.6955,6.95491 0,2.08649 -0.6955,4.17297 -1.39099,6.25946 -1.39099,2.78195 -2.08648,4.86846 -4.17296,6.95492 -1.39099,1.39098 -2.78198,2.08647 -4.86846,2.78196 -2.08648,0.69551 -4.86845,0 -7.65043,0.69551 -2.78197,1.391 -4.86845,4.17297 -6.95493,5.56395 -2.08648,1.39097 -3.47747,3.47748 -5.56395,4.86846 -2.78197,2.08646 -6.25944,3.47744 -9.7369,5.56395 -1.39099,1.39097 -2.08648,3.47746 -4.17296,5.56393 -1.390995,2.0865 -3.477485,4.17297 -4.868465,6.25943 -1.39098,1.391 -2.08648,2.782 -3.47746,4.17298 -2.08648,2.08648 -4.17296,2.78197 -6.25944,4.17295 -1.391,2.08651 -2.08649,4.86846 -3.47748,6.25944 -1.39098,2.0865 -3.47746,2.78199 -4.86845,4.86846 -1.39098,2.08648 -1.39098,5.56395 -3.47746,7.65043 -2.08648,2.08647 -5.56396,1.39098 -6.95495,3.47749 -2.08648,1.39097 -2.08648,4.17293 -2.78197,6.25941 -0.69548,1.391 -2.08648,3.47749 -0.69548,4.17298 1.39097,1.39097 3.47745,-1.391 4.86844,-0.69549 1.391,0 2.08648,2.08646 2.78198,2.08646 1.39098,0 2.08648,-1.39097 2.78198,-2.08646 0.69548,-0.69551 0.69548,-2.08649 1.39098,-2.78198 1.39098,-0.69551 3.47747,-1.39099 4.86846,-1.39099 1.39098,0 1.39098,2.08648 2.78197,2.78197 0.69549,0.69549 2.08647,0.69549 2.78198,1.391 1.39098,1.39098 0.69548,3.47744 2.08648,4.86846 1.39098,1.39098 4.17296,1.39098 4.86844,2.08646 1.391,1.39098 1.391,3.47747 2.08648,4.86847 0.6955,2.08646 1.391,4.17295 2.08648,4.86844 0.6955,0.69548 2.08649,0.69548 3.477485,0 0.69549,0 2.08648,-0.69549 3.47746,-1.39098 0.6955,-0.69549 1.39099,-0.69549 1.39099,-1.391 0.69549,-0.69549 0,-2.08646 0,-2.78195 0.69549,-0.69551 1.39099,-0.69551 2.08648,-0.69551 1.39099,0 4.17296,0 4.17296,1.391 0.69549,1.39097 -2.08648,2.78197 -2.78197,4.17295 0,1.39097 0.69549,2.78197 1.39098,3.47748 2.08648,2.78196 4.86846,5.56395 8.34592,6.95493 2.08648,1.39097 5.56395,1.39097 7.65043,2.78197 2.08648,1.39098 4.17296,3.47747 5.56395,4.86846 1.39099,2.08647 2.08648,4.17293 4.17296,5.56395 2.08648,2.08647 5.56395,2.08647 7.65043,4.86844 2.78197,2.08649 2.78197,6.25944 4.86845,9.04144 5.56396,7.65041 13.21439,3.47744 7.65044,12.51885 0,0.69549 -1.391,1.39098 -2.08648,2.08651 -1.391,0.69549 -2.08649,0.69549 -2.78198,1.39098 -0.6955,1.39097 -1.39099,2.08646 -1.39099,3.47744 0,1.391 -0.69549,3.47748 0,5.56397 0,1.39098 1.39099,2.78195 2.08648,3.47746 1.391,0.69551 2.08649,0.69551 3.47748,0 0.69549,0 1.39098,-1.391 2.08647,-2.08648 2.08648,-0.69549 4.17297,-1.39098 5.56395,-2.08649 2.08648,-1.39098 4.86846,-2.78195 6.25944,-4.86846 1.39099,-1.39098 1.39099,-3.47744 1.39099,-5.56395 0.69549,-1.39098 0.69549,-2.78196 0.69549,-4.17293 0.69549,-1.391 1.39098,-2.78198 1.39098,-4.17297 1.391,-2.78198 3.47748,-5.56393 3.47748,-8.34593 0.69549,-1.39098 -1.39099,-2.78197 -1.39099,-4.86846 0,-1.39098 1.39099,-2.08647 1.39099,-2.78197 0.69549,-2.08647 0.69549,-4.17298 2.08647,-6.25944 1.391,-2.78196 4.17297,-6.25944 6.25946,-9.04142 1.39097,-1.39097 3.47747,-1.39097 4.17296,-2.08646 1.39097,-0.69549 2.08646,-1.391 2.78197,-2.782 0.69549,-1.39097 0,-3.47744 0.69549,-5.56395 0.69549,-2.08646 2.78197,-3.47746 3.47746,-5.56392 0.69549,-1.391 2.08649,-2.08649 2.08649,-4.17298 0,-0.69549 -1.391,-1.39097 -1.391,-2.08646 -1.39098,-1.391 -2.08647,-2.782 -2.78195,-4.86846 0,-0.69549 -0.69551,-1.391 0,-2.08649 2.08646,0 4.17295,0 5.56395,1.391 2.08646,2.08646 1.39097,4.86846 2.78195,6.95492 1.391,1.39098 2.782,2.08647 3.47748,2.08647 1.39098,0 0.69549,-1.39098 0.69549,-2.08647 0.69549,-0.69548 0,-2.78197 0.69549,-2.08646 1.391,0 1.391,2.08646 2.78198,2.78195 0.69548,0 1.39099,-2.08646 2.08648,-1.39097 0.69549,0.69548 0.69549,2.08646 0,3.47746 -0.69549,0.69549 -3.47746,0 -4.17295,1.391 -0.69551,0.69549 0.69549,2.78195 0,4.17295 -0.69551,1.39098 -2.08649,2.08646 -3.47748,4.17297 -0.69549,0.69549 0,2.08647 -1.39098,2.78196 -2.08649,1.39097 -5.56395,0 -6.95495,2.08648 -1.39098,2.08649 1.391,5.56395 0.69549,7.65042 -0.69549,1.39099 -3.47746,0.69551 -4.86844,1.39099 -1.391,0.69551 -2.08649,2.08649 -2.78197,2.78198 -2.08648,2.08646 -5.56396,3.47748 -7.65045,5.56395 -0.69549,1.39098 -0.69549,3.47746 0,4.86846 1.391,1.39098 4.17298,2.08649 5.56397,0.69549 1.39099,0 1.39099,-2.78198 2.78196,-4.17297 1.39098,-1.39098 3.47747,-2.78196 4.86846,-4.17298 2.78198,-1.39097 4.86847,-2.78195 6.95493,-4.86842 2.08649,-1.39099 2.78198,-3.47748 4.17297,-4.86846 2.08649,-2.08648 4.17296,-2.08648 5.56395,-3.47746 2.08647,-2.782 3.47745,-5.56395 4.86846,-9.04143 1.39098,-1.39098 2.78196,-3.47747 2.78196,-5.56393 1.391,-2.782 1.391,-5.56395 2.08648,-8.34595 0,-0.69549 -0.69548,-2.08646 0,-2.78195 0.69549,-1.391 2.782,-1.391 3.47749,-2.78198 0.69549,-0.69551 0.69549,-2.08648 1.39098,-2.78199 1.39097,-2.08647 3.47746,-2.08647 4.17297,-4.17293 0.69549,-1.39102 -1.39102,-3.47749 -1.39102,-4.86846 0,-0.69551 0,-2.08649 0.69551,-2.08649 1.391,0 2.78197,1.39098 4.86846,1.39098 1.39098,-0.69549 2.08646,-2.78198 2.78197,-3.47747 1.39098,-2.08648 2.78198,-3.47746 4.17296,-4.86844 2.78195,-1.39102 5.56395,-1.39102 8.3459,-2.78199 1.391,-1.39098 2.78199,-3.47744 4.17297,-5.56395 0.69549,-1.39098 2.08649,-2.78198 2.78198,-4.17295 0.69549,-2.78198 0,-5.56395 0.69549,-7.65042 0.69548,-3.47748 2.78197,-6.25946 2.78197,-9.73692 0.69551,-2.08649 -1.39098,-2.78198 -1.39098,-4.86844 0.69549,-2.08649 3.47747,-4.17297 3.47747,-6.95493 0,-1.39099 -2.08649,-2.78199 -2.08649,-4.17299 -0.69549,-2.78195 -0.69549,-5.56395 -0.69549,-8.3459 0,-2.78198 0,-4.86846 0.69549,-7.65044 0,-3.47748 0.69551,-6.25942 2.08649,-9.7369 0.69548,-2.08649 4.17297,-2.78198 4.17297,-5.56395 0,-1.39096 -2.782,-2.08651 -4.17297,-3.47748 v -2.08647 c 0.69548,-0.69549 1.39097,-1.39098 2.08646,-2.08649 2.782,0 5.56397,4.86844 8.34595,4.17296 4.17295,-0.69549 3.47746,-6.95493 5.56393,-9.73691 2.78199,-2.78195 5.56397,-4.17295 9.04143,-6.25943 3.47746,-2.78198 7.65043,-4.86846 11.82339,-7.65044 2.08648,-1.39098 4.17297,-3.47746 6.25943,-4.86846 1.39098,-1.39096 2.78198,-2.78195 4.86846,-3.47744 2.08647,-1.39098 4.86845,-2.08651 7.65042,-3.47749 2.08649,-1.39097 4.17295,-4.17295 6.95495,-4.17295 2.78195,-0.69549 6.25944,1.39098 9.04139,1.39098 2.78199,0 6.25946,0 8.34592,-1.39098 2.782,-1.39098 3.47749,-4.86846 5.56397,-6.25944 2.08647,-2.08646 5.56395,-2.08646 7.65042,-4.17297 1.39098,-1.39098 0.69549,-3.47746 2.08648,-5.56395 0.69551,-1.39098 1.391,-2.78197 2.78198,-3.47746 2.08649,0 4.17295,1.39098 6.25946,2.08648 1.39098,0 3.47744,1.39098 5.56395,1.39098 1.39097,0 2.78195,-2.78197 4.86844,-3.47746 1.39097,0 3.47748,0 4.86846,0.69549 1.39098,0.69549 1.39098,2.78197 2.78195,4.17297 0.69551,0.69549 2.08651,1.391 3.47749,1.391 3.47746,-0.69551 7.65043,-0.69551 10.43239,-2.782 1.39099,-0.69549 0.69549,-3.47746 2.0865,-4.17295 1.39098,0 2.08647,2.78197 3.47745,3.47746 2.08648,0.69549 5.56397,0.69549 7.65043,1.391 2.08647,0.69549 2.782,3.47746 4.17297,2.78198 3.47747,-0.69549 6.95493,-2.78198 9.04142,-5.56397 1.39097,-2.08647 0,-5.56395 1.39097,-6.95493 1.39098,-2.08647 4.17298,-2.08647 5.56395,-3.47746 4.86846,-2.08649 9.7369,-3.47745 13.21439,-6.95493 1.39098,-0.69549 0.69549,-2.782 0.69549,-4.17297 0,-1.39098 -2.08647,-1.39098 -2.08647,-2.08647 0,-1.391 1.39098,-3.47748 2.78196,-3.47748 1.39097,0 2.78197,3.47748 3.47748,2.08648 1.39098,-1.39099 -0.69551,-4.17295 0,-6.95492 0,-0.69549 0.69549,-2.08651 1.39098,-3.47747 2.08648,-2.78199 4.17295,-5.56397 6.95494,-8.34592 2.08647,-2.782 5.56393,-5.56397 7.65042,-8.34594 0.69549,-1.391 0.69549,-3.47747 2.08646,-4.86845 2.78198,-3.47748 6.25946,-7.65043 9.04142,-11.12791 3.47748,-3.47745 6.95494,-6.25942 9.04143,-9.73689 2.08649,-3.47748 2.08649,-7.65043 2.78197,-11.82338 0.69549,-2.78198 0,-6.25946 0.69549,-9.7369 0.69549,-3.47749 1.39098,-6.95495 3.47749,-9.73693 1.39097,-4.17297 4.17293,-7.65043 6.25941,-11.12789 2.08649,-2.08649 4.86847,-4.17296 5.56395,-6.95493 1.39098,-2.78198 0,-6.25946 0.69549,-9.04143 0.69549,-6.25944 2.782,-11.82339 4.86846,-16.69183 1.39098,-4.86847 4.17298,-9.04143 5.56395,-13.2144 0.69549,-1.39097 2.08649,-2.78197 2.08649,-4.17295 0,-2.78199 -1.391,-4.86846 -1.391,-7.65043 0,-2.08649 2.08649,-4.17296 2.08649,-6.25944 -0.69549,-3.47747 -3.47747,-6.25944 -3.47747,-9.7369 0,-2.78198 1.39098,-6.25946 2.78198,-9.04144 0.69549,-4.86844 3.47746,-9.04141 3.47746,-13.21436 0,-4.17297 -4.17295,-6.95495 -4.17295,-11.12789 0,-3.47747 2.78195,-6.95493 4.17295,-10.43241 0.69551,-2.08647 0.69551,-4.17295 1.391,-5.56395 1.39098,-1.39098 4.17295,-2.08647 4.17295,-3.47746 0,-2.08647 -2.78197,-3.47747 -2.78197,-5.56395 0,-1.39098 2.08646,-3.47746 3.47746,-2.78197 2.78198,1.39099 1.391,6.25945 4.17297,7.65043 2.08647,1.391 5.56395,-0.69549 7.65042,-2.08649 2.08648,-1.39098 3.47748,-4.17295 5.56395,-5.56394 3.47746,-3.47746 7.65043,-4.86845 10.43239,-8.34592 2.78199,-2.78197 4.17297,-6.95493 6.25946,-10.4324 v -0.69549 c 0,-2.08648 0.69548,-4.86846 1.39097,-6.95494 0.69551,-2.08648 2.782,-4.17296 3.47749,-6.95493 0.69549,-1.39099 -0.69549,-2.78198 0,-3.47747 1.39097,-0.69549 2.78195,2.08648 3.47744,1.39099 2.08651,-1.39099 2.08651,-4.86846 3.47748,-6.95494 2.08647,-2.08648 4.86846,-4.17296 7.65044,-6.25944 4.17297,-4.17296 8.3459,-8.34592 13.21436,-11.82339 2.08649,-1.39098 4.17296,-2.78197 6.25946,-4.86845 1.39098,-1.39099 0.69549,-4.17296 2.08647,-5.56395 1.39097,-0.69549 3.47748,0 4.86846,-0.69549 1.39098,-1.39099 2.78197,-2.78198 3.47746,-4.86846 0.69549,-0.69549 -0.69549,-2.78197 0,-4.17296 2.78198,-3.47747 6.95493,-5.56395 9.73692,-9.04142 2.78196,-2.78197 5.56393,-6.25944 6.95493,-9.7369 2.78197,-4.17296 3.47746,-8.34592 5.56393,-13.21438 2.08651,-4.86845 4.86846,-9.73691 6.25946,-15.30085 0.69549,-5.56395 0.69549,-11.1279 0,-15.99636 0,-6.954927 0,-13.214367 -0.69551,-20.169307 -0.69549,-3.477461 -1.39098,-7.650421 -2.08647,-11.823381 -0.69549,-2.78198 -0.69549,-5.56395 -1.39097,-9.04142 -2.08651,-5.56395 -4.17298,-11.1279 -6.95495,-15.99635 -1.391,-2.08648 -3.47746,-3.47747 -5.56395,-4.17296 -5.56395,-2.08648 -11.1279,-2.78198 -16.69183,-3.47747 -4.17297,-0.69549 -8.34594,1.39099 -12.5189,0.69549 -4.86846,-1.39098 -9.04141,-4.86845 -13.21436,-6.95493 -4.86848,-3.47747 -8.34592,-6.95494 -12.5189,-9.73691 -4.86846,-3.47747 -9.04141,-6.95494 -13.21438,-11.12789 -4.17295,-3.47748 -7.65042,-7.6504302 -11.82337,-11.8234003 -3.47748,-2.78195999 -6.95495,-6.25944 -11.1279,-8.34591 -4.17297,-2.7819701 -9.7369,-2.7819701 -14.60536,-4.8684797 -2.78197,-2.08647 -5.56397,-4.86842 -9.04141,-6.25942 -4.17297,-1.391 -8.34593,-1.391 -12.5189,-2.08648 -4.17297,0 -9.04141,0.69548 -13.21438,1.39097 -2.78196,0.69551 -5.56395,3.47749 -9.0414,3.47749 -3.47748,-0.69549 -6.25945,-4.17298 -9.73692,-5.56395 -2.08648,-0.69549 -4.86844,-2.08649 -7.65043,-2.08649 -2.78196,-0.69549 -6.25942,1.391 -9.04142,0.69549 -1.39097,-0.69549 -2.08646,-3.477461 -3.47744,-3.477461 -2.78199,-1.391 -6.25946,0 -9.04143,-0.69551 -1.391,-0.69549 -1.391,-3.47744 -2.78198,-4.17293 -3.47748,-1.391 -7.65041,-1.391 -11.1279,-2.782 -0.69548,0 -1.39097,-2.08646 -2.78197,-2.08646 -1.39098,0.69548 -0.69549,4.17297 -2.08647,4.86846 -2.0865,0.69549 -4.17297,-0.69549 -5.56395,-2.08651 -1.39099,-0.69549 -0.69548,-4.17295 -2.08648,-3.47744 -2.08649,1.39097 -1.391,4.86846 -2.78198,6.95492 -1.39099,0.69549 -2.78197,0.69549 -4.17295,0 -1.391,0 -2.78199,-1.39097 -3.47748,-2.08646 -1.39098,-0.69551 -2.78196,-1.39102 -4.17295,-0.69551 -1.391,2.08649 -1.391,5.56393 -2.08649,8.345921 -1.39098,2.08649 -2.08649,4.17295 -4.17295,6.25944 -1.391,1.391 -4.17297,2.08649 -5.56395,4.17295 -1.39098,2.7819996 -0.69549,11.82340971 -2.08647,9.0414397 -1.39102,-3.47749 0,-7.6504597 1.39098,-11.1278997 0,-1.39098 1.39098,-3.47749 2.08647,-5.56395 0.69548,-1.391 0,-2.78198 0.69548,-4.172951 0.69549,-2.08651 2.08649,-4.17298 3.47749,-6.25944 0.69549,-1.39102 2.08646,-2.782 3.47746,-4.17297 0.69549,-0.69549 2.78198,-1.391 2.78198,-2.08649 -0.69551,-1.39098 -2.08649,-2.78197 -3.47747,-2.78197 -1.39099,0.6955 -2.78197,4.17297 -4.17297,2.78197 -1.391,-0.69549 0.69551,-2.78197 1.391,-4.17297 0.69549,-1.39098 2.78197,-2.08647 2.78197,-3.47745 0,-2.0865 -1.39099,-3.47748 -2.78197,-4.86846 -0.69549,-0.69548 -2.782,0 -3.47749,-0.69548 -1.39097,-2.08649 -2.08646,-4.86847 -3.47744,-6.25946 -0.69549,-0.6955 -2.08651,0 -2.78199,-0.6955 -1.39098,0 -2.08647,-2.08647 -3.47747,-1.39098 -2.08646,0 -3.47746,1.39098 -4.17297,3.47747 -0.69549,2.08649 2.782,5.56395 0.69551,6.25944 -2.78197,0.69549 -4.17295,-3.47746 -4.86844,-5.56395 -0.69549,-2.08648 2.78195,-3.47747 2.78195,-5.56394 -0.69548,-1.39101 -2.08646,-2.0865 -4.17297,-2.0865 -0.69549,-0.69549 -0.69549,1.39097 -1.39098,1.39097 -1.39097,-0.69548 0,-3.47744 -1.39097,-3.47744 -2.08649,-0.69549 -4.17298,1.39098 -6.25946,1.39098 -2.08647,0 -4.17295,-2.78198 -6.25944,-2.78198 -0.69549,0 -1.39098,2.78198 -2.08649,2.08649 -1.39097,-1.39098 0,-4.86846 -1.39097,-5.56395 -2.08647,-0.69549 -4.17298,3.47746 -6.25944,2.78198 -2.08647,-0.69549 -2.08647,-5.56395 -4.86846,-6.95493 -3.47746,-2.08649 -6.95495,-2.08649 -11.1279,-2.78198 -3.47746,-1.39097 -6.95493,-3.47746 -10.43241,-4.17295 -1.39098,0 2.08649,3.47747 0.69551,2.78198 -2.78198,0 -5.56395,-3.47747 -8.34593,-4.17295 -2.08646,0 -2.78197,2.78195 -3.47746,2.78195 -2.08649,1.391 -4.17297,0.69549 -5.56395,2.08649 -2.08646,0.69548 -2.78199,2.78197 -4.17297,4.17295 -2.08647,2.08646 -4.17293,4.17295 -6.25944,6.25944 -1.39098,1.39099 -4.17295,2.78197 -4.17295,4.17295 0,3.47748 6.25946,5.56396 4.17295,7.65044 -1.39098,2.08649 -4.86844,-2.78198 -6.95495,-2.78198 -2.78195,0.6955 -4.17293,4.17298 -6.25941,5.56396 -1.391,0.69549 -2.08649,0 -2.78198,0 -2.78197,0 -5.56397,-0.69549 -8.34592,0.69549 -2.78198,0.69551 -4.86846,4.17295 -7.65044,5.56397 -2.08646,0.69548 -4.17297,0 -6.25944,0 -2.78197,0 -5.56395,-2.08651 -8.34592,-1.39102 -2.08647,1.39102 -1.39098,6.95495 -4.17295,6.25946 -4.17295,0 -4.86844,-6.95495 -8.34593,-7.65044 -2.08646,-0.69549 -2.08646,4.86846 -4.17297,5.56395 -2.08646,0.69549 -3.47746,-2.08647 -3.47746,-4.17297 0.69551,-2.08647 4.86848,-2.08647 6.25946,-4.86844 0.69549,-2.08649 0.69549,-5.56396 0,-7.65043 -0.69549,-2.0865 -1.39098,-4.86846 -3.47749,-4.86846 -5.56393,0 -10.43239,3.47744 -15.99634,5.56395 -4.86846,1.39098 -10.43241,4.17296 -15.30087,4.86845 -3.47745,0.69551 -6.95493,2.08649 -9.73691,0 -1.39097,-0.69549 2.08649,-3.47747 3.47747,-4.17296 3.47749,-1.39098 8.34593,0.69549 11.82339,-1.39098 2.78198,-2.78199 2.78198,-6.95494 4.17297,-11.12792 0,-0.69549 0,-2.08646 0.69549,-2.78195 2.78198,-4.86846 5.56395,-10.43241 9.04142,-14.60534 4.17295,-5.56397 8.34592,-9.736945 13.21438,-14.605361 2.08649,-2.08651 5.56393,-3.47749 7.65044,-6.25946 4.17295,-3.47749 6.95492,-7.65042 9.7369,-11.82339 2.78195,-3.47746 6.25944,-7.65044 6.95492,-12.51891 0,-2.78193 -2.08646,-5.56393 -4.17297,-6.95491 -4.17295,-2.08648 -9.04139,0.69547 -12.51885,-1.39097 -2.782,-1.391 -3.47749,-4.8685 -4.17298,-7.65046 -0.69548,-1.39098 0.69549,-2.78197 0.69549,-4.86846 -0.69549,-2.78197 -2.08646,-5.56393 -3.47744,-8.34592 -2.08651,-4.17296 -4.17297,-7.65042 -5.56397,-12.51888 -0.69549,-4.17295 -0.69549,-8.34592 -1.39098,-12.51888 -0.69549,-2.78197 0,-6.25943 -1.39102,-9.04143 -2.08646,-4.17295 -4.86844,-10.43239 -9.73688,-11.12788 -2.78197,0 3.47747,6.95493 2.08649,9.7369 -1.391,2.08647 -3.47748,-4.86846 -5.56397,-4.17295 -4.86844,3.47746 -7.65042,9.7369 -11.1279,14.60536 -3.47744,6.25944 -6.95493,12.51888 -10.4324,18.77832 -1.39097,3.47748 -2.78197,6.25944 -4.17295,9.04143 -1.39099,2.78196 -1.39099,6.25942 -3.47748,7.65042 -2.78198,2.08648 -6.95493,3.47746 -10.43239,2.78197 -3.47748,-0.69549 -4.17297,-4.86846 -6.95493,-5.56395 -1.39099,-0.69549 -2.78199,2.08649 -4.17297,2.08649 -1.39099,0 -2.78198,-2.78198 -4.17296,-2.78198 -4.17297,0.69549 -6.25945,5.56395 -9.73691,5.56395 -3.47747,0.69549 -5.56395,-2.78197 -9.04142,-4.17297 -0.69549,0 -2.08648,2.08649 -2.78197,1.391 -3.47747,-2.08649 -5.56395,-8.34595 -9.73691,-8.34595 -5.56395,-0.69549 -11.12789,5.56397 -16.691845,6.25946 -2.78197,0 -4.86845,-4.86844 -6.95493,-4.17295 -3.47748,0.69549 -6.25944,3.47746 -6.95495,6.95493 0,3.47746 4.86847,6.25946 4.86847,9.73692 0,1.391 -2.78198,2.78195 -4.17296,2.08648 -3.47748,-1.39097 -5.56395,-6.25947 -9.04143,-6.95496 -1.39098,-0.69549 1.391,3.47748 0,4.86848 -1.39098,1.391 -4.86844,2.78195 -7.65042,2.78195 -2.08649,0 -4.17297,-2.78195 -6.95494,-2.78195 -3.47747,-0.69549 -8.34592,-1.391 -11.82339,0.69551 -1.39098,0.69549 2.08648,4.17295 0,4.86846 -3.47746,2.08646 -9.04141,0 -13.21437,1.39098 -1.39099,0 1.39098,2.78195 0,3.47743 -2.08648,0.69553 -4.17296,-2.08648 -5.56395,-1.39099 -4.17296,2.08652 -4.86846,7.65045 -9.041421,9.04145 -2.78197,1.39097 -6.95493,-0.69551 -9.7369,-2.08649 -4.1729696,-2.08649 -8.3459297,-4.86844 -11.1278997,-8.34592 -2.08648002,-2.08646 -2.78198003,-4.86848 -3.47747,-7.65043 0,-2.78196 2.78197,-5.56397 2.08647999,-8.34593 -0.69549001,-2.08648 -4.86845009,-2.78199 -5.56395009,-4.86846 -1.39098,-3.47746 -2.08648,-8.34592 -2.08648,-11.8234 0.6955,-2.08647 3.47747,-2.78196 4.1729601,-4.17296 1.39099,-2.08646 -0.6954901,-4.17295 0.6955,-6.25943 2.08647998,-2.78196 6.95493,-2.78196 7.65043,-5.56395 1.39098,-4.17296 -1.39099,-7.65044 -2.08648,-11.82337 -0.6955,-2.782 -2.08649,-5.56397 -2.78198001,-7.65046 -1.39099002,-1.39097 -2.08647999,-3.47746 -3.47746999,-4.17295 -1.3909801,-0.69549 -4.1729601,0.69549 -5.5639401,-0.69549 -2.7819802,-2.78199 -4.1729602,-6.25944 -4.1729602,-9.73692 -0.6955,-2.78197 2.7819702,-4.86844 2.08648,-7.65044 -0.6955,-1.39097 -3.47747,-2.78195 -5.56395,-2.78195 -2.08648,0.69549 -2.78198,3.47746 -4.86846,4.86846 -1.39098,0.69549 -2.78197,0.69549 -4.17296,0 -2.08648,-0.69549 -3.47746,-4.86846 -4.17296,-3.47748 -1.39098,2.08648 2.08648,4.17297 2.08648,6.25944 0.6955,2.08648 0.6955,4.17297 -0.69549,5.56397 -2.08648,2.78195 -4.86845,4.86846 -8.34592,6.25943 -3.47747,2.08647 -8.34592,2.08647 -11.82339,4.17296 -2.08648,1.39097 -2.08648,4.86846 -4.17296,6.25943 -2.78198,1.39098 -6.95493,1.39098 -9.73691,2.08647 -4.17296,0.69553 -7.65043,-1.39098 -11.1279,0 -3.47746,1.39102 -6.25944,3.47748 -8.34591,6.25946 -0.69551,2.08648 1.39098,4.17297 0.69549,6.25944 -0.69549,1.39097 -2.781971,0.69548 -3.477461,0 -2.08649,-1.39098 -2.78198,-4.86844 -4.86846,-5.56395 -2.08649,-1.39098 -4.86846,0 -6.95493,-0.69549 -4.17297,-0.69549 -8.345923,-2.08649 -11.823393,-4.17295 -2.78199,-1.39098 -3.47748,-6.95495 -6.95494,-6.95495 -3.47747,0 -6.95493,4.17295 -9.04142,7.65043 -1.39099,2.08647 -0.69551,6.25944 1.39098,7.65044 2.78197,2.08647 7.65044,-1.391 10.43241,1.39098 2.08647,1.39097 1.39098,4.86846 0.69549,7.65041 -0.69549,2.08651 -2.08647,3.47749 -3.47746,5.56397 -0.69551,2.08647 -2.08649,4.17295 -2.08649,6.95493 0,3.47746 0.69549,6.25944 1.39098,9.7369 0.69551,2.08649 1.39101,3.47748 2.78199,4.86846 0.69549,1.39098 2.78196,1.39098 4.17295,1.39098 1.391,0.69549 3.47747,2.78201 5.56395,2.08651 1.391,0 2.781983,-2.782 4.172983,-2.782 2.78197,0.69549 6.25943,4.17297 4.17295,5.56397 -3.47747,3.47744 -9.736903,0 -13.214373,3.47744 -4.86846,3.47751 -3.47748,12.51889 -8.34594,15.99637 -2.08647,2.08649 -2.08647,-5.56394 -4.86844,-5.56394 -2.78198,0 -3.47749,4.86846 -5.56395,6.95494 -4.86846,4.17293 -9.7369,6.95493 -13.90987,10.43239 -2.08647,2.08649 -2.78196,7.65042 -5.56395,6.95493 -3.47746,0 -1.39098,-6.25944 -4.17295,-8.34593 -2.08649,-1.39097 -4.86846,-2.08646 -6.95493,0 -2.08651,2.08649 0,9.04142 -3.47748,9.04142 -4.86846,0.69549 -7.65044,-4.86844 -11.82339,-7.65042 -3.47746,-2.08648 -7.65044,-3.47746 -9.7369,-6.95494 -1.391,-1.39098 0.69549,-4.17296 0,-6.25944 -2.78198,-5.56393 -4.86846,-13.21438 -10.43239,-15.30085 -4.17297,-1.39097 -4.86846,8.3459 -9.04144,9.04143 -2.78197,0.69549 -3.47746,-4.86845 -6.25945,-6.25945 -2.08647,-0.69551 -4.86844,-0.69551 -5.56393,1.391 -0.69549,2.08644 4.86844,6.25943 2.08648,6.95492 -9.04141,3.47746 -18.77832,1.39097 -28.51523,1.39097 -3.4775,0 -9.04143,-2.78195 -10.43241,0.69549 -2.08648,5.56397 -0.69549,12.5189 2.08647,18.77834 0.69551,2.08648 4.86844,0 6.95497,0 2.08646,-0.69549 4.17293,-2.08647 5.56395,-0.69549 2.08646,1.39097 1.39097,4.86844 1.39097,6.95494 -0.69548,2.08647 -2.08648,4.868441 -4.17299,4.868441 -2.08644,0 -3.47744,-4.868441 -6.25942,-4.868441 -3.47748,0.69549 -8.34594,2.781959 -9.7369,6.259441 -2.08648,5.56393 -0.69549,11.82337 0,17.38732 0.69547,2.08648 2.08647,3.47748 4.17295,5.56395 1.39098,0.69549 4.17298,0.69549 4.86846,2.78197 2.08645,2.08647 1.39096,4.86846 2.78196,7.65042 0.69551,2.0865 2.78199,3.47748 2.78199,5.56396 0,3.47748 -2.08648,6.25946 -2.08648,9.7369 0,2.78199 1.391,6.25946 0.69551,9.04143 -2.08653,15.300851 -4.86846,31.2972107 -8.34593,46.5980608 -1.391,6.2594402 -1.391,13.9098702 -5.56395,18.0828302 -2.08648,2.08648 -5.56395,-5.56395 -8.34592,-4.86845 -4.17297,0.69549 -5.56395,6.25944 -9.7369,6.95493 -2.08649,0.69549 -4.17297,-3.47747 -6.25944,-2.78197 -2.08651,0 -2.782,2.78197 -4.86846,3.47746 -2.08649,1.39099 -4.86846,-0.69549 -6.95495,0 -4.17297,2.08648 -6.95492,5.56395 -10.43239,8.34593 -3.47746,2.78197 -7.65043,4.17296 -10.43241,7.65043 -3.47746,3.47746 -5.56395,8.34592 -6.95493,12.51888 -1.39099,3.47746 -2.08648,6.95493 -2.78197,10.4324 0,2.78197 0.69549,5.56395 0,8.34592 -0.69549,3.47747 -0.69549,7.650431 -3.47748,10.432401 -1.39098,2.78198 -6.25944,1.39099 -7.65042,4.17296 -2.08648,3.47747 -1.39098,7.65043 -1.39098,11.127897 0,2.08648 1.39098,4.86845 0,6.25944 -1.39101,2.08648 -4.86846,0.69549 -5.56397,2.78198 -0.69548,1.39098 0.69551,3.47746 1.391,4.86845 1.391,1.39099 3.47747,1.39099 4.86846,2.78197 1.39098,1.39099 0.69549,4.17296 1.39098,5.56395 0.69549,2.08648 1.39096,4.17296 2.782,5.56395 z M 206.12878,-73.145739 c 2.08649,-3.47746 4.17296,-7.65042 6.95493,-11.1279 2.08647,-2.08647 5.56395,-8.34592 7.65044,-6.25944 2.78197,3.47749 -0.69549,9.04144 -2.08649,12.51888 -1.39098,4.17297 -4.17297,8.34592 -7.65044,11.1279 -2.78195,2.78197 -7.65041,9.7369 -10.43239,6.25941 -3.47748,-3.47744 3.47747,-8.3459 5.56395,-12.51885 z m 22.95127,-9.73692 c -0.69549,2.78199 2.08651,5.56397 2.08651,8.34594 -0.69549,2.78196 -4.17298,4.17293 -4.17298,6.25942 -0.69548,3.47748 0,7.65041 2.08647,10.43241 1.39102,1.39099 4.86846,0 6.25946,1.39099 1.39097,1.39099 -1.391,4.17297 0,4.86846 3.47746,1.391 6.95492,0 9.7369,0.69549 2.08649,0 3.47746,2.08648 5.56395,1.39099 1.391,0 0.69549,-2.78197 2.08648,-4.17297 2.78196,-1.39098 5.56393,-0.69549 7.65042,-2.08648 2.78197,-0.69549 4.17295,-3.47746 6.95495,-3.47746 1.39097,0 2.08646,2.78197 4.17295,2.78197 1.391,0 3.47748,-1.39099 4.17297,-3.47746 0,-2.0865 -3.47748,-5.56397 -2.08649,-7.65045 2.08649,-3.47747 7.65044,-3.47747 10.43242,-6.95491 2.78195,-3.47748 9.04139,-8.34594 6.25943,-12.51887 -3.47748,-4.86847 -12.51889,-6.25946 -18.08284,-3.47749 -4.17295,2.782 0,11.1279 -3.47747,15.30085 -1.39097,2.08649 -2.78195,-4.86844 -2.78195,-7.65043 0,-1.39098 3.47744,-0.69549 3.47744,-2.08647 0,-2.08646 -1.39097,-4.17297 -2.78195,-4.86846 -4.86846,-2.08647 -9.73692,-1.39098 -14.60536,-1.39098 -4.17298,-0.69549 -9.04144,-0.69549 -13.21439,0 -2.08649,0.69549 -3.47746,2.78198 -5.56395,4.17298 -1.39098,1.39097 -4.17297,2.08646 -4.17297,4.17293 z m 13.21438,-12.51886 c 4.17298,-0.69551 8.34593,0.69549 11.1279,-1.391 2.08647,-1.390994 4.17296,-5.563921 2.78198,-6.954941 -3.47747,-2.78196 -9.04141,0.69549 -12.5189,-1.39098 -1.39098,-1.39098 4.17297,-6.25944 2.08651,-6.25944 -4.17297,0 -7.65044,2.78198 -10.43241,5.56395 -2.08649,1.39098 -4.17295,3.47749 -4.17295,6.25944 -0.69549,2.086466 0,4.868461 2.08646,5.563951 1.391,0.69549 1.391,-2.78198 2.08649,-4.172974 1.39097,-1.390977 1.39097,-3.477447 3.47746,-4.172927 0.69549,-0.69553 2.78198,0.69548 2.08649,2.08646 0,2.086467 -4.17298,3.477461 -3.47747,4.868461 0,2.08647 3.47747,0 4.86844,0 z m -18.77831,-0.69551 c -2.78197,0.69551 -1.391,6.95493 0,9.04144 1.391,2.08646 5.56393,0.69548 5.56393,-0.69549 0,-3.47749 -2.08647,-9.04144 -5.56393,-8.34595 z"
         id="path1472"
         style="opacity:0.5;stroke-width:2" />
    </clipPath>
  </defs>
  <g
     stroke="none"
     stroke-dashoffset="0"
     stroke-linecap="butt"
     stroke-linejoin="miter"
     stroke-miterlimit="10"
     stroke-width="1"
     data-paper-data="{&quot;isPaintingLayer&quot;:true}"
     style="opacity:1;mix-blend-mode:normal"
     transform="matrix(4.8376068,0,0,4.8376068,264.89837,-215.22531)"
     id="g1297"
     clip-path="url(#clipPath1470)">
    <path
       fill="#ffffff"
       fill-rule="evenodd"
       d="m 188.04009,253.79486 1.25965,4.92629 -4.29711,-2.7189 -4.29579,2.7189 1.25965,-4.92629 -3.91511,-3.24629 5.07563,-0.32383 1.87562,-4.72669 1.87825,4.72669 5.07431,0.32383 z"
       id="path1227" />
    <path
       fill="#ffffff"
       fill-rule="evenodd"
       d="m 147.15739,214.22998 1.25965,4.93025 -4.29711,-2.72286 -4.29579,2.72286 1.25833,-4.93025 -3.91379,-3.24233 5.07431,-0.32515 1.87693,-4.72537 1.87693,4.72537 5.07431,0.32515 z"
       id="path1229" />
    <path
       fill="#ffffff"
       fill-rule="evenodd"
       d="m 136.37695,159.78578 1.25965,4.92629 -4.29579,-2.72022 -4.29711,2.72022 1.25965,-4.92629 -3.91511,-3.24497 5.07563,-0.32515 1.87693,-4.72669 1.87562,4.72669 5.07563,0.32515 z"
       id="path1231" />
    <path
       fill="#009c37"
       fill-rule="evenodd"
       d="M 731.91747,-288.04161 V 853.80849 H -438.54322 v -1141.8501 z"
       id="path1233"
       style="stroke-width:0.999999" />
    <path
       fill="#fee000"
       fill-rule="nonzero"
       d="M 550.98291,180 240.00001,378.57945 -70.98289,180 240.00001,-18.57945 Z"
       id="path1235" />
    <path
       fill="#002277"
       fill-rule="nonzero"
       d="m 239.99934,48.86263 c 72.41357,0 131.13804,58.72377 131.13804,131.13804 0,72.41429 -58.72452,131.1367 -131.13804,131.1367 -72.4135,0 -131.1367,-58.72375 -131.1367,-131.1367 0,-72.41295 58.72318,-131.13804 131.1367,-131.13804 z"
       id="path1237" />
    <path
       fill="#ffffff"
       fill-rule="evenodd"
       d="m 283.12247,135.4954 1.25965,4.92629 -4.29447,-2.72022 -4.29711,2.72022 1.26097,-4.92629 -3.91645,-3.24497 5.07697,-0.32515 1.87562,-4.72669 1.87428,4.72669 5.07563,0.32515 z"
       id="path1239" />
    <path
       fill="#ffffff"
       fill-rule="evenodd"
       d="m 272.91963,172.94147 0.9041,3.5437 -3.08901,-1.95624 -3.09165,1.95624 0.90807,-3.5437 -2.81803,-2.33426 3.65076,-0.23264 1.35087,-3.39962 1.34955,3.39962 3.65076,0.23264 z"
       id="path1241" />
    <path
       fill="#ffffff"
       fill-rule="evenodd"
       d="m 136.37628,159.78578 1.25965,4.92629 -4.29447,-2.72022 -4.29711,2.72022 1.26097,-4.92629 -3.91645,-3.24497 5.07697,-0.32515 1.87562,-4.72669 1.87428,4.72669 5.07563,0.32515 z"
       id="path1243" />
    <path
       fill="#ffffff"
       fill-rule="evenodd"
       d="m 191.39345,186.39853 1.06403,4.157 -3.62698,-2.29462 -3.62564,2.29462 1.06403,-4.157 -3.30446,-2.74137 4.28258,-0.27228 1.58349,-3.98781 1.58482,3.98781 4.28258,0.27228 z"
       id="path1245" />
    <path
       fill="#ffffff"
       fill-rule="evenodd"
       d="m 157.76866,205.12422 0.67807,2.65018 -2.31179,-1.46321 -2.31047,1.46321 0.67675,-2.65018 -2.1056,-1.74608 2.72948,-0.17447 1.00984,-2.54311 1.00984,2.54311 2.7308,0.17447 z"
       id="path1247" />
    <path
       fill="#ffffff"
       fill-rule="evenodd"
       d="m 147.15607,214.23394 1.25965,4.92629 -4.29447,-2.72022 -4.29711,2.72022 1.26097,-4.92629 -3.91645,-3.24497 5.07697,-0.32515 1.87562,-4.72669 1.87428,4.72669 5.07563,0.32515 z"
       id="path1249" />
    <path
       fill="#ffffff"
       fill-rule="evenodd"
       d="m 132.94955,225.37919 1.06271,4.157 -3.62564,-2.29462 -3.62564,2.29462 1.06271,-4.157 -3.30312,-2.73741 4.28126,-0.27494 1.58482,-3.99045 1.58349,3.99045 4.28258,0.27494 z"
       id="path1251" />
    <path
       fill="#ffffff"
       fill-rule="evenodd"
       d="m 173.19781,226.39961 1.06271,4.15964 -3.62432,-2.29726 -3.62564,2.29726 1.06271,-4.15964 -3.30312,-2.73873 4.28258,-0.2736 1.58349,-3.98913 1.58349,3.98913 4.28126,0.2736 z"
       id="path1253" />
    <path
       fill="#ffffff"
       fill-rule="evenodd"
       d="m 168.07722,240.07081 0.90542,3.5437 -3.09033,-1.95756 -3.09033,1.95756 0.90542,-3.5437 -2.81539,-2.33426 3.65076,-0.23264 1.34955,-3.40227 1.34955,3.40227 3.65076,0.23264 z"
       id="path1255" />
    <path
       fill="#ffffff"
       fill-rule="evenodd"
       d="m 188.03944,253.79486 1.25965,4.92629 -4.29447,-2.72022 -4.29711,2.72022 1.26097,-4.92629 -3.91645,-3.24497 5.07697,-0.32515 1.87562,-4.72669 1.87428,4.72669 5.07563,0.32515 z"
       id="path1257" />
    <path
       fill="#ffffff"
       fill-rule="evenodd"
       d="m 241.81811,284.65582 0.48641,1.89279 -1.65223,-1.04552 -1.64959,1.04552 0.48377,-1.89279 -1.50287,-1.24512 1.9483,-0.12689 0.72037,-1.81613 0.72169,1.81613 1.94962,0.12689 z"
       id="path1259" />
    <path
       fill="#ffffff"
       fill-rule="evenodd"
       d="m 243.55228,204.01261 1.06139,4.15832 -3.62564,-2.29594 -3.62564,2.29594 1.06271,-4.15832 -3.30312,-2.73873 4.28258,-0.27494 1.58349,-3.98781 1.58482,3.98781 4.28126,0.27494 z"
       id="path1261" />
    <path
       fill="#ffffff"
       fill-rule="evenodd"
       d="m 255.54482,215.2332 1.06403,4.15832 -3.62432,-2.29726 -3.62564,2.29726 1.06139,-4.15832 -3.30312,-2.73741 4.28126,-0.27494 1.58614,-3.98781 1.58349,3.98781 4.28258,0.27494 z"
       id="path1263" />
    <path
       fill="#ffffff"
       fill-rule="evenodd"
       d="m 234.02223,223.37274 0.67807,2.65018 -2.31179,-1.46189 -2.31047,1.46189 0.67675,-2.65018 -2.10692,-1.74475 2.7308,-0.17447 1.00984,-2.54443 1.00984,2.54443 2.7308,0.17447 z"
       id="path1265" />
    <path
       fill="#ffffff"
       fill-rule="evenodd"
       d="m 225.00768,216.60918 0.90542,3.5437 -3.09033,-1.95756 -3.09033,1.95756 0.90542,-3.5437 -2.81539,-2.33692 3.65076,-0.23132 1.34955,-3.40095 1.34955,3.40095 3.65076,0.23132 z"
       id="path1267" />
    <path
       fill="#ffffff"
       fill-rule="evenodd"
       d="m 243.26084,242.43415 1.25965,4.92629 -4.29447,-2.72022 -4.29711,2.72022 1.26097,-4.92629 -3.91645,-3.24497 5.07697,-0.32515 1.87562,-4.72669 1.87428,4.72669 5.07563,0.32515 z"
       id="path1269" />
    <path
       fill="#ffffff"
       fill-rule="evenodd"
       d="m 269.44863,255.46956 0.9041,3.54634 -3.08901,-1.95756 -3.09033,1.95756 0.90542,-3.54634 -2.81671,-2.33162 3.65076,-0.23396 1.35087,-3.3983 1.34955,3.3983 3.64944,0.23396 z"
       id="path1271" />
    <path
       fill="#ffffff"
       fill-rule="evenodd"
       d="m 280.57672,271.78563 1.06271,4.15964 -3.62432,-2.29726 -3.62698,2.29726 1.06403,-4.15964 -3.30312,-2.73609 4.28126,-0.27626 1.58482,-3.98781 1.58085,3.98781 4.2839,0.27626 z"
       id="path1273" />
    <path
       fill="#ffffff"
       fill-rule="evenodd"
       d="m 292.17006,258.77138 0.90674,3.54238 -3.09033,-1.95492 -3.09165,1.95492 0.90674,-3.54238 -2.81539,-2.33294 3.64812,-0.23396 1.35218,-3.40095 1.34821,3.40095 3.65076,0.23396 z"
       id="path1275" />
    <path
       fill="#ffffff"
       fill-rule="evenodd"
       d="m 307.80673,282.23299 0.90542,3.54502 -3.08901,-1.95756 -3.09033,1.95756 0.9041,-3.54502 -2.81539,-2.33294 3.65208,-0.23396 1.34955,-3.39962 1.34689,3.39962 3.6534,0.23396 z"
       id="path1277" />
    <path
       fill="#ffffff"
       fill-rule="evenodd"
       d="m 308.3381,268.60543 1.06271,4.157 -3.62698,-2.29594 -3.62564,2.29594 1.06403,-4.157 -3.30181,-2.74005 4.28126,-0.27228 1.58217,-3.99045 1.58349,3.99045 4.2839,0.27228 z"
       id="path1279" />
    <path
       fill="#ffffff"
       fill-rule="evenodd"
       d="m 307.60054,255.73128 0.90807,3.54238 -3.09165,-1.95492 -3.08901,1.95492 0.9041,-3.54238 -2.81407,-2.33558 3.64944,-0.23396 1.34955,-3.39962 1.35087,3.39962 3.65076,0.23396 z"
       id="path1281" />
    <path
       fill="#ffffff"
       fill-rule="evenodd"
       d="m 320.554,255.85684 0.90542,3.54634 -3.09033,-1.95756 -3.09033,1.95756 0.90674,-3.54634 -2.81803,-2.33162 3.65076,-0.23396 1.35087,-3.39962 1.34955,3.39962 3.65076,0.23396 z"
       id="path1283" />
    <path
       fill="#ffffff"
       fill-rule="evenodd"
       d="m 333.17966,250.44811 1.06403,4.15437 -3.62564,-2.29328 -3.62698,2.29328 1.06403,-4.15437 -3.30312,-2.74137 4.28258,-0.27228 1.58349,-3.98913 1.58217,3.98913 4.28258,0.27228 z"
       id="path1285" />
    <path
       fill="#ffffff"
       fill-rule="evenodd"
       d="m 339.38145,240.04304 1.06403,4.15568 -3.6283,-2.29328 -3.62564,2.29328 1.06403,-4.15568 -3.30181,-2.74005 4.28126,-0.2736 1.58217,-3.98781 1.58482,3.98781 4.28258,0.2736 z"
       id="path1287" />
    <path
       fill="#ffffff"
       fill-rule="evenodd"
       d="m 334.6627,227.30569 1.25965,4.92629 -4.29447,-2.72022 -4.29711,2.72022 1.26097,-4.92629 -3.91645,-3.24497 5.07697,-0.32515 1.87562,-4.72669 1.87428,4.72669 5.07563,0.32515 z"
       id="path1289" />
    <path
       fill="#ffffff"
       fill-rule="evenodd"
       d="m 353.00638,228.16552 0.90542,3.5437 -3.09033,-1.95624 -3.09165,1.95624 0.90807,-3.5437 -2.81671,-2.33162 3.64944,-0.2366 1.35087,-3.39962 1.34955,3.39962 3.64944,0.2366 z"
       id="path1291" />
    <path
       fill="#ffffff"
       fill-rule="evenodd"
       d="m 161.66467,139.57574 c -16.14268,0 -32.00604,1.22793 -47.50409,3.59524 1.89423,-6.48333 4.28221,-12.75783 7.11495,-18.78781 13.24507,-1.61917 26.71916,-2.47041 40.39044,-2.47041 78.83636,0 151.3877,27.72702 208.39607,73.89818 -0.83261,6.71729 -2.17359,13.28258 -3.99366,19.64961 C 311.08136,168.2029 239.61677,139.57573 161.66466,139.57573 Z"
       id="path1293" />
    <path
       fill="#009c37"
       fill-rule="evenodd"
       d="m 127.92281,132.77518 c 0.10979,1.2808 0.48245,2.25099 1.11161,2.91187 0.62918,0.6609 1.45529,0.94509 2.47835,0.85784 1.03231,-0.0886 1.80555,-0.51154 2.31973,-1.27023 0.51418,-0.75737 0.71375,-1.77779 0.60405,-3.05859 -0.10979,-1.27818 -0.48113,-2.24835 -1.11689,-2.90794 -0.63579,-0.66088 -1.46982,-0.94507 -2.50213,-0.85652 -1.02175,0.0886 -1.78838,0.51022 -2.29594,1.26629 -0.50756,0.7534 -0.70848,1.77251 -0.59877,3.05729 z m -2.43999,0.20882 c -0.16129,-1.87957 0.22338,-3.41417 1.15259,-4.60508 0.92922,-1.19093 2.26288,-1.86372 4.00235,-2.01176 1.73683,-0.14931 3.16699,0.28419 4.29315,1.30195 1.12484,1.01778 1.76723,2.46381 1.92847,4.33809 0.16129,1.8756 -0.22469,3.41283 -1.16051,4.60641 -0.93584,1.19357 -2.27083,1.86634 -4.00766,2.0144 -1.73947,0.14931 -3.16831,-0.28419 -4.28786,-1.30197 -1.11823,-1.01776 -1.7593,-2.46512 -1.92054,-4.34205 z m 19.00588,-2.17435 2.82465,-0.0939 c 0.61067,-0.021 1.0561,-0.16131 1.33765,-0.41769 0.27756,-0.25905 0.40841,-0.65428 0.38992,-1.18827 -0.0169,-0.50624 -0.16916,-0.88559 -0.45734,-1.13937 -0.28813,-0.25245 -0.71112,-0.36875 -1.26361,-0.35025 l -2.93435,0.0978 0.10304,3.09163 z m -2.18358,6.64859 -0.38992,-11.67398 5.66253,-0.18899 c 1.27155,-0.0436 2.22456,0.19824 2.85505,0.72169 0.63313,0.52343 0.96622,1.34689 1.00323,2.46645 0.0236,0.71112 -0.10566,1.31251 -0.3886,1.79762 -0.28154,0.48643 -0.70186,0.8248 -1.25569,1.01778 0.51418,0.16393 0.88295,0.42562 1.11161,0.78778 0.22604,0.36351 0.36749,0.93584 0.42562,1.717 l 0.0952,1.37597 c 0,0.0112 0,0.0277 0.001,0.0489 0.0356,0.69525 0.20222,1.11425 0.49435,1.2504 l 0.0112,0.3582 -2.63431,0.0886 c -0.0886,-0.16261 -0.15867,-0.36085 -0.21147,-0.60009 -0.0515,-0.23927 -0.0912,-0.52475 -0.10979,-0.85784 l -0.074,-1.22661 c -0.0515,-0.72171 -0.20222,-1.20678 -0.45602,-1.45001 -0.25507,-0.24717 -0.7032,-0.3582 -1.34291,-0.33703 l -2.54577,0.0847 0.15194,4.53901 -2.403,0.0805 z m 17.23737,-2.62375 1.92715,0.0371 c 1.11557,0.0214 1.92979,-0.25512 2.43869,-0.83007 0.51154,-0.57234 0.77852,-1.5174 0.80363,-2.8273 0.0251,-1.30459 -0.19034,-2.26948 -0.64239,-2.89074 -0.45469,-0.62388 -1.17506,-0.94243 -2.16507,-0.96225 l -2.21926,-0.0423 -0.14275,7.51566 z m -2.39507,2.06463 0.22203,-11.67796 4.57335,0.086 c 1.79102,0.0345 3.11942,0.54456 3.97989,1.52664 0.86181,0.98341 1.27552,2.45853 1.23852,4.42533 -0.0199,1.06669 -0.2009,2.00515 -0.5406,2.81277 -0.34102,0.80761 -0.82744,1.45395 -1.45265,1.93773 -0.4732,0.36085 -1.00455,0.61728 -1.60068,0.76796 -0.59612,0.14799 -1.42619,0.21413 -2.49552,0.19296 l -3.92437,-0.0714 z m 14.81981,0.26039 0.62916,-11.66207 8.46997,0.45733 -0.10979,2.0276 -6.10397,-0.32911 -0.13358,2.48626 5.58187,0.30135 -0.10847,1.99457 -5.58187,-0.3014 -0.16261,3.00044 6.38948,0.345 -0.11634,2.15451 -8.75415,-0.47453 z m 13.74653,0.81688 1.2385,-11.61317 3.53444,0.37671 1.36672,9.08593 3.22252,-8.59688 3.54766,0.37936 -1.2385,11.61449 -2.23911,-0.23924 0.99795,-9.36615 -3.35732,9.11502 -2.44398,-0.26171 -1.39184,-9.62126 -0.99793,9.36613 -2.23909,-0.23924 z m 30.94953,3.98383 2.44661,-11.42019 8.2955,1.77649 -0.42562,1.9853 -5.97579,-1.27948 -0.52209,2.43473 5.46556,1.16978 -0.41769,1.9549 -5.46689,-1.1711 -0.62916,2.93831 6.25731,1.34027 -0.45205,2.11089 -8.57572,-1.83993 z m 30.91514,0.72171 2.24435,0.60537 c 0.6054,0.16393 1.0799,0.15324 1.42753,-0.0288 0.34508,-0.1851 0.5948,-0.56045 0.74815,-1.13276 0.14388,-0.53532 0.11766,-0.9768 -0.0768,-1.32708 -0.19821,-0.34762 -0.56307,-0.59349 -1.09841,-0.73888 l -2.36599,-0.63708 -0.87895,3.25951 z m -0.56571,2.03951 -1.0799,4.0116 -2.32106,-0.6252 3.0401,-11.27745 5.01352,1.35217 c 1.18431,0.31856 1.99853,0.86973 2.4453,1.64827 0.44149,0.77852 0.50622,1.76193 0.18359,2.95418 -0.31211,1.16316 -0.8539,1.97872 -1.6192,2.44794 -0.76663,0.46922 -1.70906,0.55514 -2.81143,0.25775 l -2.85108,-0.76927 z m 14.04259,1.83596 2.70173,0.83006 c 0.58292,0.17985 1.05214,0.193 1.40242,0.0397 0.34771,-0.15324 0.59742,-0.48509 0.75607,-0.99663 0.14799,-0.48377 0.12701,-0.8922 -0.0622,-1.22529 -0.19183,-0.33174 -0.55385,-0.58026 -1.08121,-0.74284 l -2.80616,-0.86313 -0.91073,2.95816 z m -4.22836,5.57527 3.43266,-11.16377 5.41534,1.66411 c 1.21737,0.37403 2.03821,0.91203 2.46249,1.61257 0.42826,0.70186 0.47584,1.58745 0.14537,2.65943 -0.20756,0.68071 -0.52473,1.20678 -0.95299,1.57291 -0.42564,0.36745 -0.93186,0.55118 -1.5161,0.5525 0.43088,0.32253 0.69394,0.68997 0.79439,1.10767 0.0952,0.41767 0.0408,1.00455 -0.15586,1.76192 l -0.3582,1.33104 c -0.007,0.0112 -0.0112,0.0262 -0.015,0.0463 -0.19034,0.66882 -0.17048,1.11956 0.0607,1.34425 l -0.10454,0.34234 -2.52196,-0.77458 c -0.03,-0.18247 -0.03,-0.39258 -0.004,-0.63577 0.03,-0.2432 0.0847,-0.52607 0.17723,-0.84593 l 0.32896,-1.18565 c 0.18622,-0.6979 0.20083,-1.20544 0.0397,-1.51872 -0.16149,-0.3159 -0.54852,-0.56837 -1.15787,-0.75473 l -2.43473,-0.74813 -1.33498,4.34205 -2.29858,-0.7098 z m 17.78853,-0.041 c -0.44149,1.2081 -0.51548,2.24439 -0.2233,3.10882 0.29338,0.86445 0.91998,1.47246 1.88223,1.82406 0.97416,0.35557 1.85447,0.30005 2.64092,-0.17048 0.78646,-0.47054 1.39976,-1.30987 1.83993,-2.51665 0.44144,-1.20548 0.51418,-2.24176 0.21694,-3.10752 -0.296,-0.86708 -0.93318,-1.47774 -1.90468,-1.8333 -0.9636,-0.3529 -1.83728,-0.29477 -2.61581,0.17572 -0.78116,0.47056 -1.39448,1.30987 -1.83596,2.51932 z m -2.29988,-0.84199 c 0.64637,-1.77119 1.64563,-3.00044 2.98987,-3.68646 1.34689,-0.68733 2.8392,-0.73225 4.48086,-0.13358 1.63638,0.60009 2.75063,1.5967 3.33749,2.99516 0.58952,1.39712 0.56311,2.97929 -0.0832,4.74652 -0.64767,1.76987 -1.64694,2.9978 -2.9991,3.68513 -1.35087,0.68733 -2.8458,0.73226 -4.48348,0.13358 -1.64166,-0.60009 -2.75198,-1.5967 -3.33617,-2.99252 -0.58424,-1.39579 -0.55515,-2.97795 0.0941,-4.74782 z m 21.60584,13.71744 c -0.63051,0.37011 -1.25177,0.57234 -1.8677,0.61067 -0.61462,0.0345 -1.26627,-0.0925 -1.95492,-0.38596 -1.50021,-0.63975 -2.4942,-1.67998 -2.98195,-3.1194 -0.48641,-1.44076 -0.36755,-3.01103 0.35706,-4.70688 0.72961,-1.7117 1.77909,-2.88412 3.14449,-3.51328 1.3654,-0.6305 2.82201,-0.61464 4.36983,0.0437 1.34689,0.57365 2.30783,1.36276 2.88674,2.36994 0.57236,1.0072 0.7032,2.11088 0.38067,3.30578 l -2.25361,-0.96094 c 0.10192,-0.61594 0.007,-1.1592 -0.28962,-1.62976 -0.29863,-0.47056 -0.78514,-0.85256 -1.46057,-1.13937 -0.8975,-0.38332 -1.74476,-0.35557 -2.53915,0.0847 -0.79701,0.44015 -1.43808,1.24116 -1.93375,2.403 -0.49832,1.16848 -0.62126,2.19549 -0.36755,3.08637 0.25254,0.88823 0.84726,1.53195 1.78175,1.92979 0.69792,0.29869 1.37335,0.34099 2.0197,0.12945 0.64767,-0.21413 1.18431,-0.65692 1.59936,-1.32838 l -2.43473,-1.03629 0.78383,-1.83858 4.45043,1.89675 -2.47967,5.81319 -1.4804,-0.6318 0.26978,-1.38261 z m 11.10558,-0.30795 2.53785,1.2438 c 0.54984,0.26831 1.00852,0.35422 1.37863,0.25775 0.36607,-0.0978 0.66618,-0.38596 0.90274,-0.86708 0.2233,-0.45469 0.26453,-0.86048 0.13226,-1.22001 -0.1375,-0.3582 -0.45733,-0.65956 -0.95299,-0.90279 l -2.63564,-1.29136 -1.36278,2.77969 z m -5.04785,4.84567 5.13512,-10.48965 5.08885,2.49156 c 1.14201,0.55911 1.87167,1.22001 2.18096,1.97872 0.31174,0.75871 0.22068,1.64166 -0.2724,2.64752 -0.31174,0.63975 -0.7098,1.10899 -1.18825,1.40506 -0.47719,0.29739 -1.0059,0.39918 -1.5835,0.30798 0.37671,0.38596 0.57896,0.79042 0.61065,1.21868 0.03,0.42692 -0.11503,0.99793 -0.42956,1.71568 l -0.56307,1.25965 c -0.007,0.009 -0.0112,0.0236 -0.0187,0.0423 -0.296,0.63181 -0.34771,1.0799 -0.15062,1.33763 l -0.15848,0.31986 -2.36864,-1.15788 c -0.002,-0.1851 0.03,-0.39258 0.094,-0.62916 0.0674,-0.23526 0.16635,-0.50624 0.30686,-0.80893 l 0.50888,-1.11823 c 0.296,-0.6609 0.38992,-1.16052 0.27764,-1.49495 -0.10828,-0.33575 -0.45075,-0.64503 -1.02568,-0.92656 l -2.28538,-1.12087 -1.99853,4.07901 -2.15845,-1.05742 z m 13.05124,6.70274 5.6784,-10.2068 7.41387,4.12394 -0.98739,1.77515 -5.33998,-2.97136 -1.21074,2.17564 4.88397,2.71758 -0.9715,1.74608 -4.88397,-2.71758 -1.45927,2.62505 5.58983,3.11148 -1.0482,1.88485 -7.66502,-4.26407 z m 13.17949,3.62036 2.03027,1.22395 c -0.25254,0.59349 -0.2724,1.1354 -0.0622,1.62447 0.21132,0.48773 0.66748,0.94243 1.36937,1.3654 0.60009,0.36216 1.11295,0.52473 1.54383,0.49567 0.43224,-0.0277 0.77191,-0.25245 1.02437,-0.66882 0.36344,-0.60801 -0.20346,-1.63372 -1.70906,-3.08372 -0.0187,-0.0187 -0.0375,-0.0356 -0.0513,-0.0502 -0.0397,-0.0371 -0.0993,-0.0952 -0.18134,-0.17572 -0.81155,-0.76796 -1.34026,-1.3958 -1.58215,-1.88883 -0.21806,-0.43882 -0.30274,-0.90807 -0.25778,-1.4011 0.0449,-0.49435 0.2233,-1.00059 0.53796,-1.5227 0.58686,-0.97284 1.36802,-1.51872 2.34215,-1.64032 0.97154,-0.11896 2.08318,0.19692 3.33224,0.95035 1.16844,0.7045 1.91659,1.53195 2.24173,2.47967 0.32372,0.95037 0.20232,1.93641 -0.36755,2.96608 l -1.9761,-1.19225 c 0.25516,-0.50756 0.29338,-0.98737 0.10979,-1.44076 -0.18359,-0.45601 -0.5842,-0.87105 -1.20279,-1.24378 -0.54062,-0.32519 -1.01646,-0.47189 -1.43813,-0.43619 -0.419,0.0345 -0.74284,0.24587 -0.9794,0.63577 -0.31847,0.53005 0.0112,1.26629 0.98736,2.21532 0.26453,0.25775 0.47056,0.45997 0.61728,0.60405 0.6186,0.62388 1.04947,1.08385 1.29268,1.36936 0.24316,0.28813 0.43887,0.56573 0.58952,0.83007 0.26827,0.47056 0.39522,0.95565 0.37131,1.45131 -0.0187,0.49567 -0.18884,1.00719 -0.50357,1.52666 -0.62786,1.03891 -1.46192,1.6337 -2.51139,1.78572 -1.04554,0.14931 -2.20606,-0.15868 -3.48289,-0.9292 -1.25967,-0.75871 -2.06992,-1.64563 -2.43343,-2.66075 -0.36231,-1.01776 -0.24579,-2.07917 0.34883,-3.18944 z m 12.30976,7.69805 1.96417,1.32972 c -0.28551,0.57762 -0.33309,1.11823 -0.14799,1.61919 0.18658,0.49831 0.61728,0.97414 1.29537,1.43544 0.57891,0.39258 1.08383,0.5829 1.51475,0.57629 0.43354,-0.006 0.78383,-0.21015 1.05877,-0.61462 0.39784,-0.58818 -0.11914,-1.64166 -1.54254,-3.16831 -0.0187,-0.0213 -0.0375,-0.0371 -0.0491,-0.0554 -0.0397,-0.0371 -0.0967,-0.0991 -0.1731,-0.18378 -0.76925,-0.80762 -1.26495,-1.46191 -1.4804,-1.96813 -0.19559,-0.45205 -0.25516,-0.92261 -0.18658,-1.41299 0.0716,-0.49039 0.27764,-0.98737 0.61728,-1.49231 0.63711,-0.93978 1.44866,-1.44602 2.42544,-1.51475 0.97548,-0.0674 2.06992,0.30668 3.27937,1.1235 1.1288,0.76663 1.8333,1.62843 2.10824,2.59333 0.2724,0.96754 0.10192,1.94698 -0.52211,2.94493 l -1.91131,-1.29403 c 0.28027,-0.49435 0.34246,-0.9715 0.18622,-1.43414 -0.15999,-0.46394 -0.53661,-0.90012 -1.13674,-1.30329 -0.52208,-0.35552 -0.99263,-0.52473 -1.41294,-0.51418 -0.41904,0.015 -0.75607,0.20885 -1.00987,0.5829 -0.35033,0.51286 -0.0566,1.26627 0.86711,2.26686 0.24991,0.26963 0.44939,0.48245 0.58554,0.63313 0.5842,0.65692 0.99133,1.1354 1.21732,1.43678 0.22855,0.30005 0.40978,0.58688 0.5446,0.85652 0.24467,0.48643 0.34508,0.97416 0.29863,1.46982 -0.0476,0.49435 -0.24054,0.99529 -0.58162,1.49891 -0.68333,1.00588 -1.54779,1.55704 -2.60258,1.65091 -1.05344,0.0939 -2.19678,-0.27494 -3.43396,-1.11161 -1.2147,-0.82216 -1.98138,-1.75004 -2.288,-2.78367 -0.30912,-1.03762 -0.13864,-2.08974 0.51548,-3.16701 z m 14.84095,7.87783 c -0.77588,1.02306 -1.14731,1.99589 -1.1235,2.90527 0.0262,0.91203 0.44939,1.67734 1.26757,2.29594 0.82744,0.6252 1.68526,0.82875 2.57352,0.61065 0.88956,-0.22073 1.72097,-0.84726 2.49686,-1.87296 0.77326,-1.02042 1.14469,-1.9906 1.11557,-2.90791 -0.03,-0.91469 -0.4613,-1.68262 -1.28743,-2.30783 -0.81684,-0.62124 -1.67072,-0.81818 -2.55103,-0.59744 -0.88423,0.22206 -1.71434,0.84593 -2.49154,1.8743 z m -1.95359,-1.47776 c 1.13411,-1.50549 2.45061,-2.38844 3.93761,-2.65148 1.4883,-0.26433 2.92909,0.12945 4.32222,1.18431 1.39186,1.0508 2.16246,2.33029 2.31844,3.83713 0.15586,1.5108 -0.33459,3.01497 -1.4672,4.51518 -1.13806,1.50287 -2.4519,2.38581 -3.94416,2.64886 -1.49497,0.26037 -2.93835,-0.13488 -4.32621,-1.18431 -1.39448,-1.05478 -2.16509,-2.33162 -2.31574,-3.83581 -0.15062,-1.5042 0.33984,-3.01103 1.4751,-4.5139 z"
       id="path1295" />
  </g>
</svg>
